<?xml version="1.0" encoding="UTF-8"?>
<svg xmlns="http://www.w3.org/2000/svg" width="136" height="22" fill="none"><path fill="#467fcf" d="M9.79006 10.0045C10.499 9.15382 11.6687 8.19679 13.7671 8.19679 15.2558 8.19679 16.2341 8.63631 16.8437 9.31687 17.5739 10.1463 17.8717 10.9545 17.8717 13.5136V20.1065H15.0856V14.2225C15.0856 12.1242 14.9368 10.6567 12.8384 10.6567 11.1016 10.6567 10.3217 11.9966 10.3217 13.8823V20.1065H7.53573V14.2225C7.53573 12.1242 7.38685 10.6567 5.28848 10.6567 3.58 10.6567 2.77184 11.9966 2.77184 13.8823V20.1065H0V8.48035H2.78602V9.96906C3.34606 8.99077 4.59374 8.1897 6.42274 8.1897 7.6208 8.1897 8.62036 8.55833 9.30091 9.30978 9.49941 9.53663 9.64119 9.75639 9.79006 10.0045zM30.8591 17.4764C30.3487 18.2846 28.782 20.4042 25.3863 20.4042 21.941 20.4042 19.6016 17.9585 19.6016 14.2012 19.6016 10.6141 22.0686 8.21802 25.3154 8.21802 29.023 8.21802 30.8094 10.7843 30.8094 14.3501 30.8094 14.5486 30.7811 14.8605 30.7811 15.059H22.3167C22.5152 16.647 23.4864 18.0152 25.5422 18.0152 27.6406 18.0152 28.5693 16.5973 28.9379 16.016L30.8591 17.4764zM22.3876 12.9819H28.0518C27.9809 11.4648 26.8821 10.444 25.3154 10.444 23.7274 10.444 22.4585 11.5924 22.3876 12.9819zM42.3858 10.0045C43.0947 9.15382 44.2644 8.19679 46.3628 8.19679 47.8515 8.19679 48.8298 8.63631 49.4395 9.31687 50.1696 10.1463 50.4674 10.9545 50.4674 13.5136V20.1065H47.6813V14.2225C47.6813 12.1242 47.5325 10.6567 45.4341 10.6567 43.6973 10.6567 42.9175 11.9966 42.9175 13.8823V20.1065H40.1314V14.2225C40.1314 12.1242 39.9826 10.6567 37.8842 10.6567 36.1757 10.6567 35.3676 11.9966 35.3676 13.8823V20.1065H32.5815V8.48035H35.3747V9.96906C35.9347 8.99077 37.1824 8.1897 39.0114 8.1897 40.2094 8.1897 41.209 8.55833 41.8895 9.30978 42.088 9.53663 42.2369 9.75639 42.3858 10.0045zM64.1141 7.49501C62.9161 6.34658 61.3565 5.60222 59.6125 5.60222 58.0033 5.60222 56.8762 6.2686 56.8762 7.36741 56.8762 8.49458 57.6701 8.95537 59.251 9.2602L62.0654 9.82024C65.2838 10.4583 67.3042 11.7414 67.3042 14.8039 67.3042 18.4052 64.107 20.4043 59.9883 20.4043 55.9758 20.4043 53.2111 18.2563 52.1406 16.7747L54.8274 14.4707C55.8979 15.9027 57.6914 17.1787 60.0946 17.1787 62.115 17.1787 63.2918 16.3848 63.2918 15.1087 63.2918 13.9036 62.271 13.5704 60.683 13.2939L58.4358 12.8615C55.2669 12.2447 52.8637 11.0963 52.8637 7.69351 52.8637 4.5743 55.7561 2.40503 59.5629 2.40503 62.6325 2.40503 65.0853 3.55347 66.567 5.14143L64.1141 7.49501zM92.4065 2.7168V16.6185H99.361V20.0922H88.543V2.7168H92.4065zM85.4314 18.0932C85.0344 17.6962 84.446 17.356 83.6095 17.1078 84.7012 15.5979 85.2825 13.6129 85.2825 11.3302 85.2825 6.03465 82.0428 2.41211 76.9457 2.41211 71.8557 2.41211 68.6089 6.03465 68.6089 11.3302 68.6089 16.562 71.6572 20.2483 77.0166 20.2483 81.582 20.2483 84.1837 20.064 86.0552 21.2053 86.3671 20.1207 86.2395 18.9014 85.4314 18.0932zM76.9386 16.9448C74.0321 16.9448 72.4795 14.8677 72.4795 11.3089 72.4795 7.75021 74.0817 5.59512 76.9386 5.59512 79.7955 5.59512 81.3976 7.75021 81.3976 11.3089 81.3976 14.8677 79.8451 16.9448 76.9386 16.9448z"/><path fill="url(#paint0_linear)" d="M114.257 1.89273C113.538 0.960925 112.71 0.369166 111.717 0.251953C111.598 0.254694 111.48 0.26397 111.362 0.282521C107.763 0.851933 105.8 5.92625 105.708 11.0006C105.8 16.0749 107.763 21.1492 111.363 21.7186C111.48 21.7372 111.598 21.7465 111.717 21.7492C112.71 21.632 113.538 21.04 114.257 20.1084C112.372 18.0264 111.459 14.3485 111.398 11.0006C111.459 7.65262 112.371 3.97474 114.257 1.89273Z"/><path fill="url(#paint1_linear)" d="M130.063 0.282077C129.946 0.263526 129.828 0.25425 129.709 0.251509C129.686 0.251087 129.663 0.250244 129.64 0.250244C128.922 0.250455 125.078 0.250666 124.204 0.250455C124.176 0.250455 124.147 0.251087 124.118 0.251931C124.789 0.317073 125.406 0.533158 125.966 0.877631C126.404 1.14684 126.804 1.48984 127.169 1.89229C129.055 3.9743 129.967 7.65219 130.028 11.0001C129.967 14.3481 129.055 18.026 127.169 20.108C126.804 20.5102 126.404 20.8534 125.966 21.1227C125.406 21.4671 124.789 21.6832 124.118 21.7484C124.147 21.7492 124.176 21.7498 124.204 21.7498C125.078 21.7496 128.922 21.7498 129.64 21.75C129.663 21.75 129.686 21.7494 129.709 21.7488C129.828 21.746 129.946 21.7368 130.063 21.7182C133.663 21.1486 135.627 16.0745 135.718 11.0001C135.627 5.92582 133.663 0.85149 130.063 0.282077Z"/><path fill="url(#paint2_linear)" d="M122.435 18.6347C122.177 19.184 121.914 19.6755 121.642 20.1152C121.596 20.189 121.604 20.2837 121.66 20.3496C122.264 21.0595 122.95 21.5429 123.741 21.7056C123.865 21.7311 123.992 21.7444 124.118 21.7486C124.789 21.6835 125.406 21.4674 125.966 21.1229C126.404 20.8537 126.804 20.5107 127.169 20.1083C126.047 18.6547 125.191 16.3743 124.386 13.7796C124.356 13.6856 124.223 13.6858 124.195 13.7802C123.678 15.4979 123.117 17.1807 122.435 18.6347Z"/><path fill="url(#paint3_linear)" d="M114.257 1.89225C115.379 3.34582 116.235 5.62621 117.04 8.22093C117.069 8.31495 117.203 8.31474 117.231 8.2203C117.748 6.50257 118.309 4.81985 118.991 3.36585C119.249 2.81647 119.512 2.32506 119.785 1.88529C119.83 1.81172 119.823 1.71685 119.766 1.65108C119.162 0.941053 118.477 0.457653 117.685 0.294904C117.56 0.269184 117.433 0.255903 117.305 0.251687C117.277 0.250843 117.249 0.250211 117.221 0.250211C116.348 0.250422 112.504 0.250211 111.786 0.25C111.763 0.25 111.74 0.250632 111.717 0.251265C112.71 0.368689 113.538 0.960448 114.257 1.89225Z"/><path fill="url(#paint4_linear)" d="M125.966 0.877653C125.406 0.533181 124.789 0.317095 124.118 0.251953C123.992 0.255959 123.865 0.26924 123.741 0.294959C120.707 0.918341 119.238 6.25176 117.864 11.0002C116.795 14.7008 115.766 18.1527 114.257 20.108C113.538 21.0396 112.71 21.6316 111.717 21.7488C111.74 21.7492 111.763 21.7501 111.786 21.7501C112.504 21.7499 116.348 21.7496 117.221 21.7499C117.25 21.7499 117.279 21.7492 117.307 21.7484C117.434 21.7444 117.56 21.7311 117.685 21.7054C120.719 21.0818 122.188 15.7484 123.561 11C124.63 7.2993 125.659 3.84741 127.169 1.8921C126.804 1.48986 126.404 1.14686 125.966 0.877653Z"/><defs><linearGradient id="paint0_linear" x1="109.982" x2="109.982" y1=".195" y2="21.761" gradientUnits="userSpaceOnUse"><stop stop-color="#FF7BFF"/><stop offset=".072" stop-color="#F46BFF"/><stop offset=".266" stop-color="#D945FF"/><stop offset=".458" stop-color="#C527FF"/><stop offset=".646" stop-color="#B611FF"/><stop offset=".829" stop-color="#AD04FF"/><stop offset="1" stop-color="#A0F"/></linearGradient><linearGradient id="paint1_linear" x1="129.92" x2="129.92" y1=".249" y2="21.811" gradientUnits="userSpaceOnUse"><stop stop-color="#FF7BFF"/><stop offset=".072" stop-color="#F46BFF"/><stop offset=".266" stop-color="#D945FF"/><stop offset=".458" stop-color="#C527FF"/><stop offset=".646" stop-color="#B611FF"/><stop offset=".829" stop-color="#AD04FF"/><stop offset="1" stop-color="#A0F"/></linearGradient><linearGradient id="paint2_linear" x1="124.389" x2="124.389" y1="21.663" y2=".263" gradientUnits="userSpaceOnUse"><stop stop-color="#FF7BFF"/><stop offset=".072" stop-color="#F46BFF"/><stop offset=".266" stop-color="#D945FF"/><stop offset=".458" stop-color="#C527FF"/><stop offset=".646" stop-color="#B611FF"/><stop offset=".829" stop-color="#AD04FF"/><stop offset="1" stop-color="#A0F"/></linearGradient><linearGradient id="paint3_linear" x1="115.763" x2="115.763" y1="21.737" y2=".238" gradientUnits="userSpaceOnUse"><stop stop-color="#FF7BFF"/><stop offset=".072" stop-color="#F46BFF"/><stop offset=".266" stop-color="#D945FF"/><stop offset=".458" stop-color="#C527FF"/><stop offset=".646" stop-color="#B611FF"/><stop offset=".829" stop-color="#AD04FF"/><stop offset="1" stop-color="#A0F"/></linearGradient><linearGradient id="paint4_linear" x1="119.441" x2="119.441" y1="21.753" y2=".231" gradientUnits="userSpaceOnUse"><stop stop-color="#FF7BFF"/><stop offset=".072" stop-color="#F46BFF"/><stop offset=".266" stop-color="#D945FF"/><stop offset=".458" stop-color="#C527FF"/><stop offset=".646" stop-color="#B611FF"/><stop offset=".829" stop-color="#AD04FF"/><stop offset="1" stop-color="#A0F"/></linearGradient></defs></svg>
